# xmcd
#
# Track frame offsets:
#	150
#	23421
#	39462
#	60710
#	82301
#	103367
#	122702
#	143788
#	162247
#	182796
#	203993
#
# Disc length: 3040 seconds
#
# Revision: 1
# Processed by: cddbd v1.4PL0 Copyright (c) Steve Scherf et al.
# Submitted via: audiograbber 1.81.03
#
DISCID=9b0bde0b
DTITLE=Ian - One
DYEAR=1900
DGENRE=Blues
TTITLE0=Send Your Love
TTITLE1=Betcha Can Rock
TTITLE2=One on One
TTITLE3=Treat Your Right
TTITLE4=Work It Out
TTITLE5=Because the Love is Gone
TTITLE6=Need You to Know
TTITLE7=Rise
TTITLE8=A Taste of Heaven
TTITLE9=Thank You
TTITLE10=Because the Love is Gone
EXTD=
EXTT0=
EXTT1=
EXTT2=
EXTT3=
EXTT4=
EXTT5=
EXTT6=
EXTT7=
EXTT8=
EXTT9=
EXTT10=
PLAYORDER=
